<svg id="matt-space" class="animated" xmlns="http://www.w3.org/2000/svg" viewBox="0 0 195.42 280.06">
	<defs><style>.cls-a{fill:#c7b393;}.cls-b{fill:#603813;}.cls-c{fill:#e8c6a7;}.cls-10,.cls-19,.cls-d{fill:none;}.cls-d{stroke:#bda284;}.cls-10,.cls-18,.cls-19,.cls-d,.cls-6{stroke-miterlimit:10;}.cls-5{fill:#262626;}.cls-6{fill:#a0dbf2;stroke:#fff;stroke-width:4px;opacity:0.15;}.cls-7{fill:#c8c8c8;}.cls-8{fill:#f2f2f2;}.cls-9{font-size:5.71px;font-family:Europa-Bold, Europa-Bold;font-weight:700;}.cls-13,.cls-9{fill:#333;}.cls-10{stroke:#000;}.cls-11{fill:#f29727;}.cls-12{fill:#f2ede4;}.cls-14{fill:#404040;}.cls-15{opacity:0.39;}.cls-16,.cls-18{fill:#fff;}.cls-17{fill:#ff1409;}.cls-18{stroke:#c8c8c8;stroke-width:2px;}.cls-19{stroke:#7f7f7f;opacity:0.47;}</style></defs><title>Asset 31</title><g id="Layer_2" data-name="Layer 2"><g id="services"><circle class="cls-a" cx="96.21" cy="145.3" r="5.52"></circle><path class="cls-b" d="M137.59,33.29h-64c-11,0-12.52,5.8-16.55,8.83-4.41,3.31-3.31,4.41-7.72,2.21-2.45-1.94-4.41-2.21-8.61-7.71-.13-.17-.28.45-.23,1.2,1.08,17.38.43,23.29-3.3,8.72v70.63A13.28,13.28,0,0,0,50.41,130.4h87.18a13.28,13.28,0,0,0,13.24-13.24V46.53A13.28,13.28,0,0,0,137.59,33.29Z"></path><rect class="cls-c" x="42.68" y="64.19" width="103.74" height="103.74" rx="12.3" ry="12.3"></rect><rect class="cls-c" x="36.06" y="109.43" width="8.83" height="20.97" rx="3.66" ry="3.66"></rect><rect class="cls-c" x="144.21" y="109.43" width="8.83" height="20.97" rx="3.66" ry="3.66"></rect><path class="cls-d" d="M95.11,123.55c5.31,2.17,7.56,6.33,6.66,8.32-.79,1.75-4.33,2.6-8.32,1.66"></path><path class="cls-5" d="M104,98.62h1.17a3.64,3.64,0,0,1,3.64,3.64v13.91a1.94,1.94,0,0,1-1.94,1.94h-3a1.94,1.94,0,0,1-1.94-1.94V100.68A2.07,2.07,0,0,1,104,98.62Z"></path><path class="cls-5" d="M84.54,98.62h1.17a3.64,3.64,0,0,1,3.64,3.64v13.91a1.94,1.94,0,0,1-1.94,1.94h-3a1.94,1.94,0,0,1-1.94-1.94V100.68a2.07,2.07,0,0,1,2.07-2.07Z"></path><circle class="cls-6" cx="94.28" cy="94.28" r="92.28"></circle><rect class="cls-7" x="52.11" y="168.17" width="84.35" height="22.83" rx="11.42" ry="11.42"></rect><rect class="cls-8" x="63.2" y="191.01" width="59.3" height="58.99" rx="12" ry="12"></rect><rect class="cls-8" x="49.89" y="191.01" width="21.56" height="15.22" rx="7.5" ry="7.5"></rect><rect class="cls-8" x="114.52" y="228.04" width="27.91" height="42.49" rx="6.5" ry="6.5" transform="translate(-148.34 294.3) rotate(-71.97)"></rect><text class="cls-9" transform="translate(105.38 209.72)">USA</text><path class="cls-10" d="M113.37,209.73"></path><path class="cls-10" d="M103.5,209.73"></path><path class="cls-5" d="M75.19,211.83a9.18,9.18,0,0,0,6.38,0l2-10h.22l-2.4,12.71h-6.1l-2.4-12.71h.22Z"></path><path class="cls-11" d="M76.26,211.33a7.25,7.25,0,0,0,4.18,0,.74.74,0,0,0,.51-.54l1.19-4.92a.74.74,0,0,0-.49-.88,4.57,4.57,0,0,0-1.37-.29c-1.37.08-2.28,1.06-3.5,1-.3,0-.83-.09-1.31-.17a.74.74,0,0,0-.84.92c.35,1.38.9,3.26,1.15,4.38A.74.74,0,0,0,76.26,211.33Z"></path><circle class="cls-12" cx="77.11" cy="208.57" r="0.23"></circle><circle class="cls-12" cx="76.42" cy="208.03" r="0.31"></circle><circle class="cls-12" cx="76.67" cy="209.12" r="0.16"></circle><path class="cls-8" d="M128.89,254.76l-6.09,18.7a4.13,4.13,0,0,1-5.2,2.64L72.72,255.7c-2.16-.7-10.22-11.16-9.51-13.32l9.94-5.76a4.13,4.13,0,0,1,5.2-2.64l47.9,15.59A4.13,4.13,0,0,1,128.89,254.76Z"></path><path class="cls-13" d="M129,220.12,63.45,232.45c-2.46.46-2.53,1.78-.16,2.94L99.6,253a16.58,16.58,0,0,0,8.78,1.26L174,242c2.46-.46,2.53-1.78.16-2.94l-36.3-17.66A16.58,16.58,0,0,0,129,220.12Z"></path><path class="cls-14" d="M190.15,238.57,106.2,255.13c-3.15.62-5.94-1.83-6.19-5.44l-4-55.27c-.26-3.61,2.1-7.07,5.25-7.7l83.94-16.56c3.15-.62,5.94,1.83,6.19,5.44l4,55.27C195.66,234.49,193.29,238,190.15,238.57Z"></path><g class="cls-15"><path class="cls-16" d="M145,218.6a8.89,8.89,0,0,0,6.11-.93l.44-9.91.21,0-.45,12.53-5.84.89-4.15-11.83.21,0Z"></path><path class="cls-16" d="M146,218a7,7,0,0,0,4-.62.72.72,0,0,0,.41-.59l.42-4.89a.72.72,0,0,0-.59-.77,4.43,4.43,0,0,0-1.36-.08c-1.3.28-2,1.35-3.22,1.43-.29,0-.8,0-1.28,0a.72.72,0,0,0-.67,1c.54,1.27,1.34,3,1.74,4A.72.72,0,0,0,146,218Z"></path><circle class="cls-16" cx="146.37" cy="215.2" r="0.23" transform="translate(-30.63 24.4) rotate(-8.63)"></circle><circle class="cls-16" cx="145.63" cy="214.77" r="0.3" transform="translate(-30.58 24.28) rotate(-8.63)"></circle><circle class="cls-16" cx="146.02" cy="215.78" r="0.15" transform="translate(-30.72 24.35) rotate(-8.63)"></circle></g><rect class="cls-13" x="115.64" y="254.2" width="33.62" height="18.39" rx="8.25" ry="8.25" transform="translate(-159.47 304.67) rotate(-71.35)"></rect><rect class="cls-13" x="139.74" y="245.96" width="33.62" height="18.39" rx="8.25" ry="8.25" transform="translate(-135.27 321.89) rotate(-71.35)"></rect><path class="cls-8" d="M80.83,211.77,63.55,193.2a4.77,4.77,0,0,0-6.72-.24l-5,.59c-1.92,1.78-3.05,10.77-1.27,12.68L65,226.46a4.77,4.77,0,0,0,6.72.24l8.82-8.21A4.77,4.77,0,0,0,80.83,211.77Z"></path><rect class="cls-17" x="70.31" y="209.26" width="6.98" height="21.56" rx="3.49" ry="3.49" transform="translate(-37.04 423.96) rotate(-132.93)"></rect><rect class="cls-18" x="70.71" y="216.01" width="23.47" height="26.64" rx="11.73" ry="11.73" transform="translate(-29.32 445.9) rotate(-132.93)"></rect><line class="cls-19" x1="80.83" y1="211.77" x2="63.55" y2="193.2"></line></g></g>
</svg>
