<svg xmlns="http://www.w3.org/2000/svg" xmlns:xlink="http://www.w3.org/1999/xlink" viewBox="0 0 90.18 120.36"><defs><style>.contact-logo-cls-1{fill:#727272;}.contact-logo-cls-2{fill:#848484;}.contact-logo-cls-3{fill:#5b5b5b;}.contact-logo-cls-10,.contact-logo-cls-16,.contact-logo-cls-4{fill:none;}.contact-logo-cls-4{stroke:#353535;}.contact-logo-cls-10,.contact-logo-cls-16,.contact-logo-cls-4,.contact-logo-cls-9{stroke-miterlimit:10;}.contact-logo-cls-5{fill:#353535;}.contact-logo-cls-6{fill:#efefef;}.contact-logo-cls-7{fill:#606060;}.contact-logo-cls-8,.contact-logo-cls-9{fill:#666;}.contact-logo-cls-10,.contact-logo-cls-9{stroke:#606060;}.contact-logo-cls-11{fill:#f2f2f2;}.contact-logo-cls-12{fill:#f29727;}.contact-logo-cls-13{fill:#f2ede4;}.contact-logo-cls-14{fill:#c7b393;}.contact-logo-cls-15{fill:#757575;}.contact-logo-cls-16{stroke:#bda284;}.contact-logo-cls-17{opacity:0.68;isolation:isolate;fill:url(#radial-gradient);}</style><radialGradient id="radial-gradient" cx="-517.83" cy="295.99" r="7.47" gradientTransform="matrix(2.14, 0, 0, -0.66, 1153.32, 274.96)" gradientUnits="userSpaceOnUse"><stop offset="0.04" stop-color="#333"/><stop offset="0.16" stop-color="#282828" stop-opacity="0.79"/><stop offset="0.46" stop-color="#121212" stop-opacity="0.36"/><stop offset="0.74" stop-color="#050505" stop-opacity="0.09"/><stop offset="1" stop-opacity="0"/></radialGradient></defs><title>contact_logo</title><g id="Layer_2" data-name="Layer 2"><g id="Layer_1-2" data-name="Layer 1"><path class="contact-logo-cls-1" d="M5.18,120.36Q0,112.47,0,100.81T5.18,80.94H7.65a36.89,36.89,0,0,0-5.24,19.83,36.17,36.17,0,0,0,5.21,19.59Z"/><path class="contact-logo-cls-1" d="M82.57,120.36a36.26,36.26,0,0,0,5.21-19.59,37,37,0,0,0-5.25-19.83H85q5.17,8.18,5.17,19.87T85,120.36Z"/><path class="contact-logo-cls-1" d="M7.48,101.62h3c1.94,0,2.9,1.07,2.9,3v6.2c0,2-1,3-2.9,3h-3Zm3,10.44c.63,0,1-.31,1-1.19v-6.41c0-.88-.38-1.2-1-1.2h-1v8.8Z"/><path class="contact-logo-cls-1" d="M14.62,101.62h5.3v1.82H16.63v3.12h2.56v1.65H16.63v3.85h3.29v1.83h-5.3Z"/><path class="contact-logo-cls-1" d="M20.57,101.62h1.94l1.27,9.51h0l1.27-9.51h1.75L25,113.88H22.43Z"/><path class="contact-logo-cls-1" d="M27.8,101.62h5.31v1.82h-3.3v3.12h2.56v1.65H29.81v3.85h3.3v1.83H27.8Z"/><path class="contact-logo-cls-1" d="M34.2,101.43H36v10.63h3.11v1.83H34.2Z"/><path class="contact-logo-cls-1" d="M40.06,110.93v-6.44c0-2,1-3.08,2.93-3.08s2.93,1.12,2.93,3.08v6.44c0,2-1,3.09-2.93,3.09S40.06,112.89,40.06,110.93Zm3.85.15v-6.75c0-.88-.39-1.22-1-1.22s-1,.34-1,1.22v6.75c0,.88.39,1.22,1,1.22s1-.34,1-1.22Z"/><path class="contact-logo-cls-1" d="M47,101.62H50c2,0,2.92,1.07,2.92,3v1.21c0,2-1,3.06-2.92,3.06H49v4.94H47Zm2.91,5.49c.61,0,.94-.29.94-1.18v-1.49c0-.89-.33-1.18-.94-1.18H49v3.85Z"/><path class="contact-logo-cls-1" d="M53.79,101.62h2.77l1.24,8.78h0l1.24-8.78h2.77v12.26H60v-9.33h.44l-1.52,9.34H57.18l-1.52-9.34h0v9.34H53.79Z"/><path class="contact-logo-cls-1" d="M63.31,101.62h5.31v1.82h-3.3v3.12h2.56v1.65H65.32v3.85h3.29v1.83h-5.3Z"/><path class="contact-logo-cls-1" d="M69.71,101.62h2.55L74,108.94h0v-7.32h1.65v12.26h-2l-2.33-9h0v9H69.71Z"/><path class="contact-logo-cls-1" d="M78.7,103.44h-2v-1.82h6v1.82h-2v10.44h-2Z"/><path class="contact-logo-cls-2" d="M7.48,87.56h2.86l1.27,9.06h0l1.28-9.06h2.86v12.58H14V90.6H13.9l-1.47,9.54h-1.7L9.28,90.6h0v9.54H7.48Z"/><path class="contact-logo-cls-2" d="M18.85,87.56h2.73l2.09,12.83h-2l-.35-2.55v0H19l-.35,2.5h-1.9ZM21,96.12l-.89-6.29h0l-.87,6.29Z"/><path class="contact-logo-cls-2" d="M25.34,89.32h-2V87.56h6v1.76h-2v10.82h-2Z"/><path class="contact-logo-cls-2" d="M32.14,89.32h-2V87.56h6v1.76h-2v10.82h-2Z"/><path class="contact-logo-cls-2" d="M39.93,87.56h2.28v5.29h2V87.56h2v12.83h-2V94.61h-2v5.53H39.94Z"/><path class="contact-logo-cls-2" d="M49.16,87.56h2.73L54,100.39h-2.1l-.36-2.55v0h-2.3l-.35,2.5H47.07Zm2.19,8.56-.89-6.29h0l-.88,6.29Z"/><path class="contact-logo-cls-2" d="M54.53,97.36v-.74h1.76v.89c0,.92.4,1.26,1,1.26s1-.34,1-1.3-.4-1.76-1.71-2.93c-1.67-1.49-2.21-2.55-2.21-4,0-2,1-3.22,3-3.22s2.91,1.18,2.91,3.26v.54H58.55v-.67c0-.93-.36-1.28-1-1.28s-1,.36-1,1.24S57,92,58.28,93.17c1.67,1.51,2.2,2.54,2.2,4.15,0,2.11-1,3.3-3,3.3S54.53,99.43,54.53,97.36Z"/><path class="contact-logo-cls-2" d="M61.57,87.56h2V98.38h3.26v1.76H61.57Z"/><path class="contact-logo-cls-2" d="M67.86,87.56H73.4v1.76H69.87v3.53h2.77v1.76H69.87v3.77H73.4v1.76H67.86Z"/><path class="contact-logo-cls-2" d="M74.4,87.56h2.86l1.28,9.06h0l1.28-9.06h2.86v12.58H80.94V90.6h-.1l-1.47,9.56H77.69l-1.5-9.56h0v9.54H74.4Z"/><rect class="contact-logo-cls-3" x="45.6" y="63.5" width="6.44" height="14.9" rx="1.52"/><rect class="contact-logo-cls-3" x="39.16" y="63.5" width="6.44" height="14.9" rx="1.52"/><line class="contact-logo-cls-4" x1="45.8" y1="70.54" x2="45.8" y2="76.79"/><rect class="contact-logo-cls-5" x="45.53" y="77.52" width="6.85" height="2.82" rx="1.17"/><rect class="contact-logo-cls-5" x="38.83" y="77.52" width="6.85" height="2.82" rx="1.17"/><rect class="contact-logo-cls-6" x="42.27" y="47.33" width="6.65" height="5.48" rx="1.87"/><ellipse class="contact-logo-cls-7" cx="46.51" cy="65.94" rx="0.56" ry="0.43"/><rect class="contact-logo-cls-8" x="38.2" y="51.66" width="15.16" height="18.47" rx="1.87"/><path class="contact-logo-cls-9" d="M46.8,52.55l.65.63a1.15,1.15,0,0,0,1.35.11l2.1-1.35a.65.65,0,0,0,.28-.87.49.49,0,0,0-.14-.18l-.66-.63A1.14,1.14,0,0,0,49,50.15l-2.1,1.33a.65.65,0,0,0-.31.86A.68.68,0,0,0,46.8,52.55Z"/><line class="contact-logo-cls-10" x1="45.41" y1="54.98" x2="45.41" y2="69.12"/><path class="contact-logo-cls-8" d="M48.94,62.54l-.52-.47a1.06,1.06,0,0,1-.15-1.5.91.91,0,0,1,.3-.25l4.55-3.12a1.92,1.92,0,0,1,2.25.12h0a1.08,1.08,0,0,1,.14,1.51,1,1,0,0,1-.29.24L50.07,62.6A1,1,0,0,1,48.94,62.54Z"/><ellipse class="contact-logo-cls-7" cx="46.51" cy="62.77" rx="0.56" ry="0.43"/><path class="contact-logo-cls-11" d="M44.56,62.91a5.53,5.53,0,0,0,3,0l.93-3.71h.11l-1.14,4.68H44.6L43.46,59.2h.11Z"/><path class="contact-logo-cls-12" d="M45.07,62.7a4.06,4.06,0,0,0,2,0,.31.31,0,0,0,.25-.19l.56-1.82a.27.27,0,0,0-.22-.32h0a3,3,0,0,0-.66-.1c-.64,0-1.07.39-1.65.35a6,6,0,0,1-.62-.06c-.24,0-.47.15-.4.34.17.51.43,1.21.55,1.62A.28.28,0,0,0,45.07,62.7Z"/><ellipse class="contact-logo-cls-13" cx="45.47" cy="61.71" rx="0.11" ry="0.08"/><ellipse class="contact-logo-cls-13" cx="45.14" cy="61.51" rx="0.15" ry="0.12"/><ellipse class="contact-logo-cls-13" cx="45.26" cy="61.91" rx="0.07" ry="0.06"/><ellipse class="contact-logo-cls-7" cx="46.51" cy="59.59" rx="0.56" ry="0.43"/><path class="contact-logo-cls-8" d="M53,51.66h1a1.87,1.87,0,0,1,1.88,1.87v4.41a.94.94,0,0,1-.94.93H53A1.87,1.87,0,0,1,51.14,57V53.53A1.87,1.87,0,0,1,53,51.66Z"/><path class="contact-logo-cls-8" d="M37.48,51.66h1.07a1.87,1.87,0,0,1,1.87,1.87v7.8a1.87,1.87,0,0,1-1.87,1.87h-2a.94.94,0,0,1-.94-.94V53.53A1.87,1.87,0,0,1,37.48,51.66Z"/><path class="contact-logo-cls-9" d="M44.39,52.55l-.66.63a1.14,1.14,0,0,1-1.35.11l-2.1-1.35a.65.65,0,0,1-.28-.87.62.62,0,0,1,.14-.18l.66-.63a1.16,1.16,0,0,1,1.35-.11l2.08,1.35a.65.65,0,0,1,.3.86A.94.94,0,0,1,44.39,52.55Z"/><circle class="contact-logo-cls-14" cx="45.77" cy="40.87" r="2.01"/><path class="contact-logo-cls-15" d="M60.87,0H37.51c-4,0-4.57,2.12-6,3.22S30.26,4.83,28.66,4a10.37,10.37,0,0,1-3.15-2.82c-.05-.06-.1.17-.08.44.39,6.34.15,8.5-1.21,3.18V30.6a4.86,4.86,0,0,0,4.84,4.84H60.88A4.85,4.85,0,0,0,65.7,30.6V4.83A4.85,4.85,0,0,0,60.87,0Z"/><rect class="contact-logo-cls-6" x="35.61" y="62.29" width="2.96" height="2.64" rx="0.92"/><rect class="contact-logo-cls-6" x="45.96" y="61.18" width="3.7" height="1.99" rx="0.92"/><rect class="contact-logo-cls-6" x="26.23" y="11.28" width="37.85" height="37.85" rx="5.76"/><path class="contact-logo-cls-6" d="M25.43,27.79h0A1.61,1.61,0,0,1,27,29.4v4.43a1.61,1.61,0,0,1-1.61,1.61h0a1.61,1.61,0,0,1-1.61-1.61V29.4A1.61,1.61,0,0,1,25.43,27.79Z"/><path class="contact-logo-cls-6" d="M64.89,27.79h0A1.61,1.61,0,0,1,66.5,29.4v4.43a1.61,1.61,0,0,1-1.61,1.61h0a1.61,1.61,0,0,1-1.61-1.61V29.4A1.61,1.61,0,0,1,64.89,27.79Z"/><path class="contact-logo-cls-16" d="M45.37,32.93c1.94.79,2.75,2.32,2.43,3s-1.58.94-3,.61"/><path class="contact-logo-cls-5" d="M48.77,23.84h0a1.6,1.6,0,0,1,1.61,1.6v4.68a.86.86,0,0,1-.86.85h-.8a.85.85,0,0,1-.85-.85V24.75a.9.9,0,0,1,.9-.91Z"/><path class="contact-logo-cls-5" d="M41.67,23.84h0a1.6,1.6,0,0,1,1.6,1.6v4.68a.85.85,0,0,1-.85.85h-.81a.85.85,0,0,1-.85-.85V24.75a.91.91,0,0,1,.91-.91Z"/><ellipse class="contact-logo-cls-17" cx="45.16" cy="79.61" rx="21.53" ry="9.83"/></g></g></svg>
