<svg xmlns="http://www.w3.org/2000/svg" viewBox="0 0 252.12 110.21"><defs><style>.logo-cls-1{fill:#404040;}.logo-cls-2{fill:#f29727;}</style></defs><g id="Layer_2" data-name="Layer 2"><g id="Layer_1-2" data-name="Layer 1"><text/><path class="logo-cls-1" d="M14.48,110.21Q0,88.12,0,55.55T14.48,0h6.91Q6.72,23.79,6.73,55.42q0,31.44,14.57,54.79Z"/><path class="logo-cls-1" d="M230.83,110.21Q245.4,86.86,245.4,55.42,245.4,23.8,230.73,0h6.92q14.47,22.86,14.47,55.55t-14.47,54.66Z"/><path class="logo-cls-1" d="M20.91,57.8h8.28c5.43,0,8.09,3,8.09,8.47V83.61c0,5.48-2.66,8.47-8.09,8.47H20.91ZM29.35,87c1.76,0,2.82-.88,2.82-3.34V65.74c0-2.46-1.06-3.34-2.82-3.34H26.54V87Z"/><path class="logo-cls-1" d="M40.86,57.8H55.7v5.11H46.49v8.7h7.17v4.61H46.49V87H55.7v5.12H40.86Z"/><path class="logo-cls-1" d="M57.51,57.8h5.43l3.53,26.6h.1L70.1,57.8H75L69.85,92.08H62.7Z"/><path class="logo-cls-1" d="M77.71,57.8H92.55v5.11H83.34v8.7H90.5v4.61H83.34V87h9.21v5.12H77.71Z"/><path class="logo-cls-1" d="M95.62,57.28h5.11V87h8.7v5.12H95.62Z"/><path class="logo-cls-1" d="M112,83.84v-18c0-5.49,2.89-8.63,8.19-8.63s8.18,3.14,8.18,8.63v18c0,5.49-2.89,8.63-8.18,8.63S112,89.33,112,83.84Zm10.75.41V65.39c0-2.47-1.09-3.41-2.82-3.41s-2.81.94-2.81,3.41V84.25c0,2.47,1.08,3.41,2.81,3.41S122.74,86.72,122.74,84.25Z"/><path class="logo-cls-1" d="M131.43,57.8h8.22c5.47,0,8.16,3,8.16,8.53v3.4c0,5.52-2.69,8.53-8.16,8.53h-2.59V92.08h-5.63Zm8.14,15.35c1.69,0,2.61-.8,2.61-3.3V65.7c0-2.5-.92-3.3-2.61-3.3h-2.51V73.15Z"/><path class="logo-cls-1" d="M150.37,57.8h7.75l3.46,24.56h.09l3.46-24.56h7.75V92.08h-5.11V66H169l-4.26,26.1h-4.9L155.59,66h-.11v26.1h-5.11Z"/><path class="logo-cls-1" d="M177,57.8h14.84v5.11H182.6v8.7h7.17v4.61H182.6V87h9.22v5.12H177Z"/><path class="logo-cls-1" d="M194.89,57.8H202l5,20.46h.1V57.8h4.6V92.08h-5.62L199.59,67h-.1V92.08h-4.6Z"/><path class="logo-cls-1" d="M220,62.91h-5.63V57.8h16.89v5.11h-5.63V92.08H220Z"/><path class="logo-cls-2" d="M20.91,18.51h8l3.56,25.32h.1l3.57-25.32h8V53.68H39.2V27h-.34L34.75,53.68H30L25.93,27h-.1V53.68H20.91Z"/><path class="logo-cls-2" d="M52.69,18.51h7.64l5.84,35.87H60.62l-1-7.14v.11H53.18l-1,7h-5.3Zm6.13,23.91L56.33,24.84h-.1L53.79,42.42Z"/><path class="logo-cls-2" d="M70.85,23.43H65.22V18.51H82.1v4.92H76.47V53.68H70.85Z"/><path class="logo-cls-2" d="M89.84,23.43H84.21V18.51h16.88v4.92H95.47V53.68H89.84Z"/><path class="logo-cls-2" d="M111.64,18.51H118V33.28h5.63V18.51h5.63V54.38H123.6V38.2H118V53.68h-6.33Z"/><path class="logo-cls-2" d="M137.42,18.51h7.63l5.84,35.87H145l-1-7.14v.11h-6.42l-1,7h-5Zm6.13,23.91-2.49-17.58H141l-2.44,17.58Z"/><path class="logo-cls-2" d="M152.44,45.9V43.83h4.92v2.48c0,2.59,1.12,3.52,2.89,3.52s2.89-.93,2.89-3.62c0-3-1.11-4.92-4.76-8.18-4.67-4.19-6.19-7.14-6.19-11.28,0-5.69,2.89-9,8.31-9s8.12,3.31,8.12,9.11v1.5h-4.93V26.49c0-2.58-1-3.57-2.79-3.57s-2.78,1-2.78,3.47c0,2.64,1.16,4.55,4.81,7.81,4.67,4.2,6.14,7.09,6.14,11.6,0,5.9-2.94,9.21-8.42,9.21S152.44,51.7,152.44,45.9Z"/><path class="logo-cls-2" d="M172.13,18.51h5.63V48.75h9.14v4.93H172.13Z"/><path class="logo-cls-2" d="M189.72,18.51h15.47v4.92h-9.85v9.85h7.74V38.2h-7.74V48.75h9.85v4.93H189.72Z"/><path class="logo-cls-2" d="M208,18.51h8l3.56,25.32h.1l3.56-25.32h8V53.68h-4.93V27H226l-4.1,26.73h-4.72L213,27h-.1V53.68H208Z"/></g></g></svg>
