<svg xmlns="http://www.w3.org/2000/svg" xmlns:xlink="http://www.w3.org/1999/xlink" viewBox="0 0 92 191.12"><defs><style>.matt-cls-1{fill:#295e72;}.matt-cls-2{fill:#4b6772;stroke:#1f5468;}.matt-cls-14,.matt-cls-2,.matt-cls-7,.matt-cls-8{stroke-miterlimit:10;}.matt-cls-3{fill:#262626;}.matt-cls-4{fill:#e8c6a7;}.matt-cls-5{fill:#606060;}.matt-cls-6,.matt-cls-7{fill:#666;}.matt-cls-7,.matt-cls-8{stroke:#606060;}.matt-cls-14,.matt-cls-8{fill:none;}.matt-cls-9{fill:#f2f2f2;}.matt-cls-10{fill:#f29727;}.matt-cls-11{fill:#f2ede4;}.matt-cls-12{fill:#c7b393;}.matt-cls-13{fill:#603813;}.matt-cls-14{stroke:#bda284;}.matt-cls-15{opacity:0.68;fill:url(#radial-gradient);}</style><radialGradient id="radial-gradient" cx="-203.81" cy="40.84" r="15.99" gradientTransform="translate(482.07 143.2) scale(2.14 0.66)" gradientUnits="userSpaceOnUse"><stop offset="0.04" stop-color="#333"/><stop offset="0.16" stop-color="#282828" stop-opacity="0.79"/><stop offset="0.46" stop-color="#121212" stop-opacity="0.36"/><stop offset="0.74" stop-color="#050505" stop-opacity="0.09"/><stop offset="1" stop-opacity="0"/></radialGradient></defs><g id="Layer_2" data-name="Layer 2"><g id="Layer_1-2" data-name="Layer 1"><rect class="matt-cls-1" x="46.94" y="135.69" width="13.77" height="31.84" rx="3.25"/><rect class="matt-cls-1" x="33.17" y="135.69" width="13.77" height="31.84" rx="3.25"/><line class="matt-cls-2" x1="47.37" y1="150.75" x2="47.37" y2="164.09"/><rect class="matt-cls-3" x="46.78" y="165.65" width="14.63" height="6.02" rx="2.5"/><rect class="matt-cls-3" x="32.47" y="165.65" width="14.63" height="6.02" rx="2.5"/><rect class="matt-cls-4" x="39.81" y="101.15" width="14.22" height="11.72" rx="4"/><ellipse class="matt-cls-5" cx="48.89" cy="140.92" rx="1.19" ry="0.92"/><rect class="matt-cls-6" x="31.12" y="110.39" width="32.39" height="39.46" rx="4"/><path class="matt-cls-7" d="M49.49,112.3l1.4,1.35a2.48,2.48,0,0,0,2.89.23L58.26,111a1.38,1.38,0,0,0,.3-2.25l-1.4-1.34a2.46,2.46,0,0,0-2.88-.24l-4.48,2.84A1.38,1.38,0,0,0,49.49,112.3Z"/><line class="matt-cls-8" x1="46.52" y1="117.49" x2="46.52" y2="147.7"/><path class="matt-cls-6" d="M54.08,133.64l-1.12-1a2.27,2.27,0,0,1,.32-3.74L63,122.24a4.13,4.13,0,0,1,4.81.25h0a2.29,2.29,0,0,1-.32,3.75l-11,7.53A2.06,2.06,0,0,1,54.08,133.64Z"/><ellipse class="matt-cls-5" cx="48.89" cy="134.13" rx="1.19" ry="0.92"/><path class="matt-cls-9" d="M44.71,134.44a11.8,11.8,0,0,0,6.45,0l2-7.93h.22l-2.43,10H44.79l-2.42-10h.22Z"/><path class="matt-cls-10" d="M45.8,134A9.21,9.21,0,0,0,50,134a.68.68,0,0,0,.52-.42l1.2-3.88a.59.59,0,0,0-.5-.7,6.15,6.15,0,0,0-1.39-.23c-1.38.07-2.3.84-3.54.76-.3,0-.83-.06-1.33-.13s-1,.32-.84.73c.35,1.09.91,2.57,1.16,3.45A.64.64,0,0,0,45.8,134Z"/><ellipse class="matt-cls-11" cx="46.66" cy="131.87" rx="0.24" ry="0.18"/><ellipse class="matt-cls-11" cx="45.96" cy="131.44" rx="0.32" ry="0.25"/><ellipse class="matt-cls-11" cx="46.21" cy="132.3" rx="0.16" ry="0.12"/><ellipse class="matt-cls-5" cx="48.89" cy="127.35" rx="1.19" ry="0.92"/><path class="matt-cls-6" d="M62.77,110.39H65a4,4,0,0,1,4,4v9.42a2,2,0,0,1-2,2H62.77a4,4,0,0,1-4-4v-7.42A4,4,0,0,1,62.77,110.39Z"/><path class="matt-cls-6" d="M29.59,110.39h2.27a4,4,0,0,1,4,4v16.67a4,4,0,0,1-4,4H27.59a2,2,0,0,1-2-2V114.39a4,4,0,0,1,4-4Z"/><path class="matt-cls-7" d="M44.34,112.3l-1.4,1.35a2.46,2.46,0,0,1-2.88.23L35.57,111a1.38,1.38,0,0,1-.3-2.25l1.4-1.34a2.48,2.48,0,0,1,2.89-.24L44,110.05A1.38,1.38,0,0,1,44.34,112.3Z"/><rect class="matt-cls-4" x="25.59" y="133.12" width="6.32" height="5.64" rx="1.97"/><rect class="matt-cls-4" x="47.71" y="130.74" width="7.9" height="4.26" rx="1.97"/><circle class="matt-cls-12" cx="47.29" cy="87.35" r="4.3"/><path class="matt-cls-13" d="M79.56,0H29.65C21,0,19.89,4.52,16.74,6.88c-3.44,2.59-2.58,3.45-6,1.73C8.81,7.09,7.28,6.88,4,2.59c-.1-.13-.21.35-.17.93.84,13.56.33,18.16-2.58,6.81V65.4A10.36,10.36,0,0,0,11.58,75.73h68A10.36,10.36,0,0,0,89.89,65.4V10.33A10.36,10.36,0,0,0,79.56,0Z"/><rect class="matt-cls-4" x="5.55" y="24.1" width="80.89" height="80.89" rx="12.3"/><rect class="matt-cls-4" x="0.39" y="59.38" width="6.88" height="16.35" rx="3.44"/><rect class="matt-cls-4" x="84.72" y="59.38" width="6.88" height="16.35" rx="3.44"/><path class="matt-cls-14" d="M46.44,70.38c4.14,1.69,5.89,4.94,5.19,6.49-.62,1.36-3.38,2-6.49,1.3"/><path class="matt-cls-3" d="M53.72,50.94h0a3.42,3.42,0,0,1,3.42,3.42v10a1.82,1.82,0,0,1-1.82,1.82H53.6a1.82,1.82,0,0,1-1.82-1.82V52.89a1.94,1.94,0,0,1,1.94-1.94Z"/><path class="matt-cls-3" d="M38.53,50.94h0a3.42,3.42,0,0,1,3.42,3.42v10a1.82,1.82,0,0,1-1.82,1.82H38.41a1.82,1.82,0,0,1-1.82-1.82V52.89a1.94,1.94,0,0,1,1.94-1.94Z"/><ellipse class="matt-cls-15" cx="46" cy="170.12" rx="46" ry="21"/></g></g></svg>
