<svg xmlns="http://www.w3.org/2000/svg" xmlns:xlink="http://www.w3.org/1999/xlink" viewBox="0 0 168 109"><defs><style>.cls-1{fill:none;}.cls-2{fill:#f0f2f2;}.cls-3{clip-path:url(#clip-path);}.cls-4{fill:#262626;}.cls-5{fill:#f29727;}.cls-6{fill:#f2ede4;}</style><clipPath id="clip-path"><rect class="cls-1" x="62.46" y="8.02" width="41.74" height="48.65"/></clipPath></defs><g id="Layer_2" data-name="Layer 2"><g id="Layer_1-2" data-name="Layer 1"><rect class="cls-2" width="168" height="109" rx="13.17"/><g id="Artwork_6" data-name="Artwork 6"><g id="Artwork_2" data-name="Artwork 2"><g class="cls-3"><g class="cls-3"><path class="cls-4" d="M71.35,46.45c12.29,5,24.4,0,24.4,0L103.34,8h.86L95,56.67H71.65L62.46,8h.84Z"/><path class="cls-5" d="M75.46,44.54a27.69,27.69,0,0,0,16,0,2.84,2.84,0,0,0,2-2.06L97.93,23.6a2.83,2.83,0,0,0-1.86-3.36,17.2,17.2,0,0,0-5.26-1.11c-5.26.3-8.72,4.06-13.41,3.68-1.16-.09-3.16-.33-5-.63a2.84,2.84,0,0,0-3.21,3.5c1.35,5.29,3.45,12.49,4.39,16.77a2.86,2.86,0,0,0,1.91,2.09"/><path class="cls-6" d="M79.6,34a.9.9,0,1,1-.9-.9.89.89,0,0,1,.9.9"/><path class="cls-6" d="M77.27,31.89a1.2,1.2,0,1,1-1.2-1.2,1.2,1.2,0,0,1,1.2,1.2"/><path class="cls-6" d="M77.61,36.06a.6.6,0,0,1-.6.6.6.6,0,1,1,0-1.2.6.6,0,0,1,.6.6"/></g></g></g><path d="M47.73,63.24h4.74c3,0,4.46,1.61,4.46,4.55V77.1c0,3-1.47,4.55-4.46,4.55H47.73ZM50.49,66V78.89h1.45c.82,0,1.31-.46,1.31-1.75V67.76c0-1.29-.49-1.75-1.31-1.75Z"/><path d="M64.55,81.65a5.71,5.71,0,0,1-.25-2.22V76.59c0-1.68-.56-2.3-1.81-2.3h-1v7.36H58.77V63.24h4.12c2.92,0,4.17,1.38,4.17,4.18v1.43c0,1.87-.59,3.06-1.84,3.66v.29c1.38.6,1.84,2,1.84,3.84v2.81a5.41,5.41,0,0,0,.3,2.2ZM61.54,66v5.52h1.09c1,0,1.67-.46,1.67-1.9V67.86c0-1.29-.43-1.85-1.42-1.85Z"/><path d="M71.66,63.24v14c0,1.3.53,1.77,1.38,1.77s1.38-.47,1.38-1.77v-14h2.76V77.08c0,2.91-1.41,4.57-4.14,4.57S68.9,80,68.9,77.08V63.24Z"/><path d="M81.84,68.77h0V81.65H79V63.24h3.26l3.13,11.05h.06V63.24h2.76V81.65H85.32Z"/><path d="M93.69,74.32,92.83,76v5.65H90.07V63.24h2.76v8.29h0l3.57-8.29h2.76l-3.84,8.21,3.84,10.2H96.37Z"/><path d="M103.88,70.61h3.68v2.76h-3.68v5.52h4.6v2.76h-7.36V63.24h7.36V66h-4.6Z"/><path d="M113.13,68.77h0V81.65h-2.76V63.24h3.26l3.13,11.05h.05V63.24h2.77V81.65h-2.92Z"/><path d="M47.73,82.57h2.84c1.8,0,2.68,1.05,2.68,3v6c0,1.92-.88,3-2.68,3H47.73Zm1.84,1.85V92.7h1c.54,0,.87-.3.87-1.13v-6c0-.83-.33-1.12-.87-1.12Z"/><path d="M56,87.18h2.76V89H56V92.7h3.68v1.84H54.17v-12h5.52v.92H56Z"/><path d="M63.46,91.78h0L65,81.65h1.92l-2,12.89h-3l-2-12.89H62Z"/><path d="M68.9,87.18h2.76V89H68.9V92.7h3.68v1.84H67.06v-12h5.52v.92H68.9Z"/><path d="M73.5,82.57h1.84V92.7H78.1v1.84H73.5Z"/><path d="M79,85.17a2.57,2.57,0,0,1,2.77-2.91c1.78,0,2.76,1.06,2.76,2.91v6c0,1.86-1,2.91-2.76,2.91S79,93.05,79,91.19Zm1.85,6.07c0,.8.35,1.11.92,1.11s.92-.31.92-1.11V85.13c0-.81-.36-1.11-.92-1.11s-.92.3-.92,1.11Z"/><path d="M91.91,85.53v1.38c0,2-.92,3-2.79,3h-.89v4.6H86.39v-12h2.74C91,82.57,91.91,83.62,91.91,85.53Zm-3.68-1.11V88.1h.9c.61,0,.94-.25.94-1V85.44c0-.78-.33-1-.94-1Z"/><path d="M96.09,90.86h0l1.32-8.29h2.75V93.62H98.35V85.34h0L97,93.62h-1.4l-1.36-8.28h.42v8.28H91.91V82.57h2.74Z"/><path d="M103.88,87.18h2.76V89h-2.76V92.7h3.68v1.84H102v-12h5.52v.92h-3.68Z"/><path d="M109.44,85.34h0v9.2h-1.84v-12h2.8l1.88,7.37h-.08V82.57H114V93.62h-2.08Z"/><path d="M114.92,82.57h5.53v1.85H118.6V94.54h-1.84V84.42h-1.84Z"/><path class="cls-4" d="M45.48,101q-5-8.85-5-21.91t5-22.27h2.4q-5.1,9.54-5.1,22.22t5.07,22Z"/><path class="cls-4" d="M120.15,101q5.07-9.36,5.07-22t-5.1-22.22h2.4q5,9.17,5,22.27t-5,21.91Z"/></g></g></g></svg>