<svg xmlns="http://www.w3.org/2000/svg" viewBox="0 0 37.67 29"><defs><style>.cls-contact-1{fill:#270036;}</style></defs><title>contact</title><g id="Layer_2" data-name="Layer 2"><g id="Layer_1-2" data-name="Layer 1"><path class="cls-contact-1" d="M33.63,0H3.92A3.8,3.8,0,0,0,0,3.91V18.59A3.8,3.8,0,0,0,3.91,22.5H8.82v5.29a1.19,1.19,0,0,0,.66,1.08A1.16,1.16,0,0,0,10,29a1.23,1.23,0,0,0,.72-.23l8.5-6.26H33.63a3.93,3.93,0,0,0,4-4V4A3.92,3.92,0,0,0,33.63,0Zm1.63,18.47a1.52,1.52,0,0,1-1.63,1.62H18.84a1.24,1.24,0,0,0-.72.24l-6.89,5.08V21.3A1.22,1.22,0,0,0,10,20.09H3.91a1.39,1.39,0,0,1-1.5-1.5V3.91a1.4,1.4,0,0,1,1.51-1.5H33.63A1.51,1.51,0,0,1,35.26,4V18.47Z"/><circle class="cls-contact-1" cx="26.75" cy="11.39" r="1.62"/><circle class="cls-contact-1" cx="10.92" cy="11.39" r="1.62"/><path class="cls-contact-1" d="M18.84,9.77a1.62,1.62,0,1,0,1.62,1.62A1.62,1.62,0,0,0,18.84,9.77Z"/></g></g></svg>
