<svg xmlns="http://www.w3.org/2000/svg" viewBox="0 0 129.8 124.42"><defs><style>.cls-1{fill:#f9c41b;stroke:#333;stroke-miterlimit:10;stroke-width:8px;}</style></defs><g id="Layer_2" data-name="Layer 2"><g id="Layer_1-2" data-name="Layer 1"><path class="cls-1" d="M67.64,104.74l28.52,15a5.88,5.88,0,0,0,8.54-6.2L99.25,81.77a5.9,5.9,0,0,1,1.7-5.21L124,54.07a5.89,5.89,0,0,0-3.26-10L88.87,39.4a5.9,5.9,0,0,1-4.43-3.22L70.18,7.28a5.88,5.88,0,0,0-10.55,0L45.36,36.18a5.89,5.89,0,0,1-4.43,3.22L9.05,44a5.89,5.89,0,0,0-3.27,10L28.86,76.56a5.87,5.87,0,0,1,1.69,5.21L25.1,113.53a5.89,5.89,0,0,0,8.54,6.2l28.52-15A5.9,5.9,0,0,1,67.64,104.74Z"/></g></g></svg>