<svg xmlns="http://www.w3.org/2000/svg" viewBox="0 0 81 124"><defs><style>.cls-1{fill:#ff4f38;stroke-width:8px;}.cls-1,.cls-2,.cls-3{stroke:#333;stroke-miterlimit:10;}.cls-2{fill:#333;stroke-width:4px;}.cls-3{fill:#7f7f7f;stroke-width:3px;}.cls-4{fill:#fff;}</style></defs><g id="Layer_2" data-name="Layer 2"><g id="Layer_1-2" data-name="Layer 1"><rect class="cls-1" x="4" y="4" width="73" height="116" rx="9.89"/><rect class="cls-2" x="14.86" y="15.85" width="51.28" height="79.15" rx="7.79"/><circle class="cls-3" cx="40.5" cy="106.5" r="4.5"/><path class="cls-4" d="M36.79,59.67,35.71,43.5c-.2-3.15-.31-5.41-.31-6.78a6.13,6.13,0,0,1,1.47-4.37,5,5,0,0,1,3.87-1.57c1.93,0,3.22.67,3.88,2a13.55,13.55,0,0,1,1,5.78,43.54,43.54,0,0,1-.24,4.53L43.91,59.73a13.32,13.32,0,0,1-1,4.56,2.66,2.66,0,0,1-2.57,1.59,2.55,2.55,0,0,1-2.53-1.54A15.25,15.25,0,0,1,36.79,59.67Zm3.74,22.2a5.29,5.29,0,0,1-3.59-1.33,4.69,4.69,0,0,1-1.54-3.73,5,5,0,0,1,5.07-5,5,5,0,0,1,3.62,1.47,4.78,4.78,0,0,1,1.51,3.56,4.69,4.69,0,0,1-1.52,3.71A5.2,5.2,0,0,1,40.53,81.87Z"/></g></g></svg>