<svg xmlns="http://www.w3.org/2000/svg" viewBox="0 0 231.75 231.72"><defs><style>.cls-brush-1{fill:#270036;}</style></defs><title>Asset 2</title><g id="Layer_2" data-name="Layer 2"><g id="Layer_1-2" data-name="Layer 1"><g id="paintbrush"><path class="cls-brush-1" d="M222,6.49a27.63,27.63,0,0,0-38.84,3.24L91.78,116.65c-32.16,5.47-52.37,24.7-57,54.13,0,.28-6.21,28.64-26.09,36.38A14.81,14.81,0,0,0,0,219.53a10.73,10.73,0,0,0,2.78,8c3.38,3.71,8.3,4.12,9.73,4.17H13c40.41-1.11,115.91-19.65,116.93-81.38L224.47,46.25l.74-.88A27.56,27.56,0,0,0,222,6.49Zm-199.79,210c20.58-13.35,26.6-41.48,26.93-43.1,3.8-24.47,19.79-38.88,47.5-42.82l.32,0L115.47,147v.7C116.58,201.46,47.9,213.79,22.17,216.52Zm191.59-180L119.17,140.65l-16.41-14.6,91.39-107a13.08,13.08,0,0,1,18.44-1.53,12.91,12.91,0,0,1,4.59,8.9A13.22,13.22,0,0,1,213.76,36.47Z"/></g></g></g></svg>
