<svg xmlns="http://www.w3.org/2000/svg" viewBox="0 0 24.61 29"><defs><style>.cls-programming-1{fill:#270036;}</style></defs><title>programming</title><g id="Layer_2" data-name="Layer 2"><g id="Layer_1-2" data-name="Layer 1"><path class="cls-programming-1" d="M2.64,24.66V17.91S1.84,15.74,0,15.74V12.5c1.84,0,2.64-2.16,2.64-2.16v-6c0-3,1.8-4.34,4.09-4.34H8.79V3.52h-1a1.6,1.6,0,0,0-1.6,2v5.41c-.31,1.29-.78,2.66-2.63,3.17v.07c1.85.5,2.32,1.87,2.63,3.17v5.4a2.6,2.6,0,0,0,1.6,2.75h1V29H6.73C4.44,29,2.64,27.63,2.64,24.66Z"/><path class="cls-programming-1" d="M15.82,25.48h.65a3.26,3.26,0,0,0,2-2.75v-5.4c-.07-1.3.4-2.67,2.64-3.17v-.07c-2.24-.51-2.64-3.17-2.64-3.17V6.29c0-2.15-.68-2.77-2-2.77h-.61V0h2.09s4,1,4.06,3.71v6.63c-.06,1.66.41,2.16,2.64,2.16v3.24A2.7,2.7,0,0,0,22,17.91v6.75c0,3-1.81,4.34-4.09,4.34H15.82Z"/></g></g></svg>
