<svg xmlns="http://www.w3.org/2000/svg" viewBox="0 0 137.59 121.19"><defs><style>.cls-1{fill:#f9c41b;}.cls-2{fill:#333;}</style></defs><g id="Layer_2" data-name="Layer 2"><g id="Layer_1-2" data-name="Layer 1"><path class="cls-1" d="M7.68,117.69a4.17,4.17,0,0,1-3.61-6.25L65.19,5.58a4.16,4.16,0,0,1,7.21,0l61.12,105.86a4.17,4.17,0,0,1-3.61,6.25Z"/><path class="cls-2" d="M68.8,7a.6.6,0,0,1,.57.33l61.12,105.86a.61.61,0,0,1,0,.67.6.6,0,0,1-.58.33H7.68a.6.6,0,0,1-.58-.33.61.61,0,0,1,0-.67L68.22,7.33A.6.6,0,0,1,68.8,7m0-7a7.59,7.59,0,0,0-6.64,3.83L1,109.69a7.67,7.67,0,0,0,6.64,11.5H129.91a7.67,7.67,0,0,0,6.64-11.5L75.43,3.83A7.58,7.58,0,0,0,68.8,0Z"/><path class="cls-2" d="M63.44,75.21,61.88,51.88q-.43-6.83-.44-9.79a8.88,8.88,0,0,1,2.12-6.31,7.28,7.28,0,0,1,5.58-2.27q4.19,0,5.6,2.9t1.41,8.36a62.9,62.9,0,0,1-.34,6.52l-2.09,24a18.76,18.76,0,0,1-1.47,6.57,3.81,3.81,0,0,1-3.7,2.29A3.69,3.69,0,0,1,64.9,82,22.1,22.1,0,0,1,63.44,75.21Zm5.4,32.05a7.64,7.64,0,0,1-5.18-1.92A6.74,6.74,0,0,1,61.44,100a7.24,7.24,0,0,1,7.31-7.26A7.18,7.18,0,0,1,74,94.82,6.89,6.89,0,0,1,76.15,100,6.78,6.78,0,0,1,74,105.31,7.46,7.46,0,0,1,68.84,107.26Z"/></g></g></svg>