<svg xmlns="http://www.w3.org/2000/svg" viewBox="0 0 19.16 22.22"><defs><style>.cls-1{fill:#fff;}</style></defs><title>white_x</title><g id="Layer_2" data-name="Layer 2"><g id="Layer_1-2" data-name="Layer 1"><path class="cls-1" d="M13.57,20l-4-5.83L5.54,20A10.09,10.09,0,0,1,4.05,21.7a2.27,2.27,0,0,1-1.55.52,2.6,2.6,0,0,1-1.77-.65A1.94,1.94,0,0,1,0,20.08a5,5,0,0,1,1.12-2.46l5-7.09L1.68,4.62A4.4,4.4,0,0,1,.54,2.08,1.92,1.92,0,0,1,1.22.62,2.55,2.55,0,0,1,3,0,2.36,2.36,0,0,1,4.59.54a10.68,10.68,0,0,1,1.48,1.7L9.61,7.09l3.44-4.85A9.76,9.76,0,0,1,14.54.52,2.39,2.39,0,0,1,16.12,0a2.64,2.64,0,0,1,1.79.61,1.89,1.89,0,0,1,.71,1.47,2.61,2.61,0,0,1-.29,1.19,9.6,9.6,0,0,1-.89,1.35l-4.39,5.91L18,17.62a5.25,5.25,0,0,1,1.16,2.5,1.89,1.89,0,0,1-.72,1.48,2.66,2.66,0,0,1-1.78.62,2.44,2.44,0,0,1-1.6-.54A9.28,9.28,0,0,1,13.57,20Z"/></g></g></svg>