<svg xmlns="http://www.w3.org/2000/svg" viewBox="0 0 461.7 325"><defs><style>.cls-1{fill:#58c9f5;}.cls-2{fill:#fff;}.cls-3{fill:#333;}.cls-4{font-size:59px;fill:#44d000;font-family:Comfortaa-Bold, Comfortaa;font-weight:700;}.cls-5{fill:#262626;}.cls-6{fill:#f29727;}.cls-7{fill:#f2ede4;}.cls-8{fill:#ffab3b;}</style></defs><title>Asset 55</title><g id="Layer_2" data-name="Layer 2"><g id="services"><ellipse class="cls-1" cx="147" cy="163.5" rx="147" ry="132.5"/><path class="cls-1" d="M151,144.5C182.09,71,219.5,0,304,0S442,66.12,457,144.5C480.74,268.64,412.16,314.33,304,289,130.88,248.46,103.41,257,151,144.5Z"/><ellipse class="cls-1" cx="234" cy="181.5" rx="147" ry="132.5"/><rect class="cls-2" x="161.87" y="30.89" width="280" height="167" rx="12" ry="12"/><rect class="cls-3" x="173.87" y="41.39" width="256" height="146" rx="12" ry="12"/><rect class="cls-2" x="282.25" y="190" width="39" height="25" rx="6.17" ry="6.17"/><rect class="cls-2" x="257.25" y="212" width="89" height="12.33" rx="6.17" ry="6.17"/><text class="cls-4" transform="translate(255.77 132.52)">&lt;/&gt;</text><path class="cls-5" d="M92.64,205.73c18.85,7.7,37.42,0,37.42,0l11.63-58.93H143l-14.1,74.6H93.1L79,146.8h1.3Z"/><path class="cls-6" d="M98.93,202.79c10.3,3.33,20.11,1.24,24.51-.07a4.35,4.35,0,0,0,3-3.15l7-28.88a4.35,4.35,0,0,0-2.86-5.15c-3.28-1.08-6.38-1.8-8.07-1.71-8.06.47-13.37,6.22-20.56,5.65-1.77-.14-4.85-.51-7.71-1a4.35,4.35,0,0,0-4.91,5.37C91.34,182,94.57,193,96,199.59A4.35,4.35,0,0,0,98.93,202.79Z"/><circle class="cls-7" cx="103.91" cy="186.62" r="1.37"/><circle class="cls-7" cx="99.87" cy="183.41" r="1.84"/><circle class="cls-7" cx="101.32" cy="189.8" r="0.92"/><rect class="cls-8" x="65" y="238" width="36" height="87" rx="12" ry="12"/><rect class="cls-8" x="390" y="238" width="36" height="87" rx="12" ry="12"/><rect class="cls-6" x="46" y="222" width="413" height="33" rx="12" ry="12"/></g></g></svg>