<svg xmlns="http://www.w3.org/2000/svg" viewBox="0 0 210 315"><defs><style>.cls-1{fill:#333;}.cls-2{fill:#404040;}.cls-3{fill:#fff;}.cls-4{fill:#c8c8c8;}.cls-5{fill:#a0dbf2;}.cls-6{fill:#262626;}.cls-7{fill:#f29727;}.cls-8{fill:#f2ede4;}</style></defs><title>Asset 56</title><g id="Layer_2" data-name="Layer 2"><g id="services"><rect class="cls-1" width="210" height="315" rx="12" ry="12"/><rect class="cls-2" x="85.33" y="293.25" width="39" height="9" rx="4.5" ry="4.5"/><path class="cls-3" d="M30.67,28.25h149a12,12,0,0,1,12,12v85a0,0,0,0,1,0,0h-173a0,0,0,0,1,0,0v-85A12,12,0,0,1,30.67,28.25Z"/><rect class="cls-3" x="18.5" y="22.5" width="173" height="258" rx="12" ry="12"/><rect class="cls-4" x="35.03" y="182.98" width="140" height="80.55"/><rect class="cls-5" x="85.03" y="128.49" width="40" height="44.53" rx="7" ry="7"/><rect class="cls-5" x="35.03" y="128.49" width="40" height="44.53" rx="7" ry="7"/><rect class="cls-5" x="135.03" y="128.49" width="40" height="44.53" rx="7" ry="7"/><path class="cls-6" d="M90.44,93.65c14.43,5.9,28.65,0,28.65,0L128,48.53h1l-10.8,57.11H90.8L80,48.53h1Z"/><path class="cls-7" d="M95.26,91.4A32.55,32.55,0,0,0,114,91.35a3.33,3.33,0,0,0,2.29-2.41l5.33-22.11a3.33,3.33,0,0,0-2.19-3.95,20.52,20.52,0,0,0-6.18-1.31c-6.17.36-10.23,4.77-15.74,4.33-1.35-.11-3.71-.39-5.91-.75a3.33,3.33,0,0,0-3.76,4.11c1.58,6.21,4.05,14.66,5.16,19.68A3.33,3.33,0,0,0,95.26,91.4Z"/><circle class="cls-8" cx="99.07" cy="79.02" r="1.05"/><circle class="cls-8" cx="95.98" cy="76.56" r="1.41"/><circle class="cls-8" cx="97.09" cy="81.45" r="0.71"/></g></g></svg>